Coordinates
version=1
nRows=19
nColumns=24
inDegrees=yes

Units are S.I. units (second, meters, Newtons, ...)
Angles are in degrees.

endheader
time	pelvis_tilt	pelvis_list	pelvis_rotation	pelvis_tx	pelvis_ty	pelvis_tz	hip_flexion_r	hip_adduction_r	hip_rotation_r	knee_angle_r	ankle_angle_r	subtalar_angle_r	mtp_angle_r	hip_flexion_l	hip_adduction_l	hip_rotation_l	knee_angle_l	ankle_angle_l	subtalar_angle_l	mtp_angle_l	lumbar_extension	lumbar_bending	lumbar_rotation
      1.47000000	    -13.56071235	      1.72368486	     -4.16346422	      0.06324253	      0.94745421	      0.02501553	      4.33810229	      2.24111907	      9.09613773	    -15.60946690	     13.11951206	      0.00000000	      0.00000000	     36.59281387	     -1.33111847	     -4.75086263	     -6.14143659	     -3.25528584	      0.00000000	      0.00000000	      9.28594460	     -1.88898016	      4.40675393
      1.48000000	    -13.53390933	      1.78270639	     -4.17083408	      0.06480908	      0.94657528	      0.02350139	      3.81173713	      2.01859246	      9.14403499	    -15.73687799	     12.92536118	      0.00000000	      0.00000000	     36.57245489	     -1.04816957	     -5.11694116	     -6.84433373	     -3.26815109	      0.00000000	      0.00000000	      9.36870516	     -1.86003883	      4.48729439
      1.49000000	    -13.51688262	      1.83095274	     -4.16625805	      0.06659471	      0.94566216	      0.02190651	      3.31610267	      1.79916108	      9.14394043	    -15.92530169	     12.69121268	      0.00000000	      0.00000000	     36.51079201	     -0.75780977	     -5.38801923	     -7.53746116	     -3.33209461	      0.00000000	      0.00000000	      9.49084590	     -1.81461698	      4.57845265
      1.50000000	    -13.49559627	      1.87447575	     -4.14257061	      0.06857074	      0.94474593	      0.02029026	      2.84418168	      1.58932836	      9.10265540	    -16.18284939	     12.39109251	      0.00000000	      0.00000000	     36.40466343	     -0.45081280	     -5.56177306	     -8.21989590	     -3.43109552	      0.00000000	      0.00000000	      9.64132980	     -1.78550172	      4.66844558
      1.51000000	    -13.44950220	      1.91213573	     -4.04923382	      0.07077735	      0.94391422	      0.01850745	      2.35874093	      1.36962274	      8.90813882	    -16.47484163	     11.90312818	      0.00000000	      0.00000000	     36.23649210	     -0.09693064	     -5.67155783	     -8.87351973	     -3.51296771	      0.00000000	      0.00000000	      9.78884561	     -1.75442332	      4.69635924
      1.52000000	    -13.47017740	      1.95475835	     -4.03709344	      0.07309271	      0.94306733	      0.01682893	      1.99721078	      1.17215206	      8.90309323	    -16.87228354	     11.63421165	      0.00000000	      0.00000000	     36.05375858	      0.21044168	     -5.48238295	     -9.41229174	     -3.70373072	      0.00000000	      0.00000000	     10.04819621	     -1.72378808	      4.83384296
      1.53000000	    -13.43652906	      2.07792856	     -3.93907535	      0.07537167	      0.94239328	      0.01492903	      1.70872705	      0.88507994	      8.79258606	    -17.50121336	     11.08357407	      0.00000000	      0.00000000	     35.90125757	      0.64731611	     -5.16973083	    -10.12388274	     -3.96630754	      0.00000000	      0.00000000	     10.23185238	     -1.80211496	      4.88564572
      1.54000000	    -13.42159896	      2.21675435	     -3.79146730	      0.07777956	      0.94190365	      0.01294834	      1.50247176	      0.58652526	      8.54248666	    -18.22900694	     10.39247894	      0.00000000	      0.00000000	     35.73086627	      1.12674483	     -4.72776848	    -10.78826738	     -4.17806124	      0.00000000	      0.00000000	     10.45864088	     -1.91713099	      4.88682317
      1.55000000	    -13.50231090	      2.35810445	     -3.44633203	      0.08042049	      0.94154599	      0.01056586	      1.42571133	      0.25439985	      7.81952390	    -18.98567119	      9.35809749	      0.00000000	      0.00000000	     35.62187945	      1.72270397	     -4.01295798	    -11.40750675	     -4.27267611	      0.00000000	      0.00000000	     10.84134331	     -2.05770307	      4.69216910
      1.56000000	    -13.43296533	      2.55793285	     -3.29468976	      0.08287316	      0.94163449	      0.00864713	      1.32602173	     -0.06252238	      7.86625625	    -19.97024821	      8.59522262	      0.00000000	      0.00000000	     35.40971793	      2.23636746	     -3.38372488	    -12.17647571	     -4.37426245	      0.00000000	      0.00000000	     11.01607986	     -2.27495745	      4.68142892
      1.57000000	    -13.39355596	      2.79437109	     -3.05399656	      0.08536099	      0.94199429	      0.00643343	      1.42180924	     -0.45345005	      7.44766679	    -21.19605889	      7.39352874	      0.00000000	      0.00000000	     35.21852370	      2.83859090	     -2.65560788	    -12.97043439	     -4.23479418	      0.00000000	      0.00000000	     11.22374069	     -2.53243003	      4.59971016
      1.58000000	    -13.45103326	      3.03326846	     -2.66120674	      0.08797719	      0.94255676	      0.00399233	      1.65028157	     -0.87363640	      6.71379063	    -22.40833232	      5.75395233	      0.00000000	      0.00000000	     35.13624824	      3.51265738	     -1.79135857	    -13.83718913	     -3.77656822	      0.00000000	      0.00000000	     11.57765168	     -2.82411645	      4.33831597
      1.59000000	    -13.36787425	      3.28225614	     -2.34745910	      0.09032578	      0.94356666	      0.00183623	      1.91185319	     -1.24018051	      6.42929954	    -23.90442111	      4.13969532	      0.00000000	      0.00000000	     34.89825313	      4.12961288	     -1.06077527	    -14.71036015	     -3.37133387	      0.00000000	      0.00000000	     11.70578491	     -3.14916897	      4.13702209
      1.60000000	    -13.23685647	      3.57173278	     -2.10340969	      0.09265758	      0.94493120	     -0.00040002	      2.27381855	     -1.68814475	      6.03983644	    -25.56761305	      2.21002515	      0.00000000	      0.00000000	     34.55191224	      4.74880581	     -0.42818903	    -15.52470876	     -2.83518086	      0.00000000	      0.00000000	     11.77634011	     -3.47736868	      3.98500167
      1.61000000	    -13.08004714	      3.85495994	     -1.81587931	      0.09491324	      0.94654529	     -0.00253741	      2.70365600	     -2.11052194	      5.68270019	    -27.32876033	     -0.00981549	      0.00000000	      0.00000000	     34.10166650	      5.35498786	      0.04247658	    -16.19708537	     -2.22289425	      0.00000000	      0.00000000	     11.79804644	     -3.83525054	      3.78172396
      1.62000000	    -12.87122233	      4.15174156	     -1.60457851	      0.09704116	      0.94839505	     -0.00463884	      3.22808898	     -2.56856465	      5.31960252	    -29.23291528	     -2.54951490	      0.00000000	      0.00000000	     33.50050035	      5.91933523	      0.35013509	    -16.70650377	     -1.59861229	      0.00000000	      0.00000000	     11.73831216	     -4.17399192	      3.57046221
      1.63000000	    -12.60742957	      4.45886070	     -1.44034351	      0.09896428	      0.95034988	     -0.00661143	      3.84988046	     -3.03691107	      4.97442216	    -31.31254308	     -5.21983758	      0.00000000	      0.00000000	     32.75951706	      6.44941973	      0.45919820	    -17.02458223	     -1.02321571	      0.00000000	      0.00000000	     11.58203771	     -4.52090051	      3.41347860
      1.64000000	    -12.31843262	      4.74420608	     -1.32912482	      0.10071808	      0.95233434	     -0.00847056	      4.56223264	     -3.48992388	      4.62489063	    -33.48406146	     -8.08238022	      0.00000000	      0.00000000	     31.87889552	      6.90813392	      0.35740027	    -17.09718421	     -0.51404122	      0.00000000	      0.00000000	     11.37373692	     -4.83205648	      3.24823902
      1.65000000	    -12.01015114	      5.04240599	     -1.29328667	      0.10224161	      0.95424533	     -0.01025088	      5.38368597	     -3.97877882	      4.25611334	    -35.75897057	    -10.95931436	      0.00000000	      0.00000000	     30.92141356	      7.33739975	      0.10379976	    -17.02535821	     -0.05373109	      0.00000000	      0.00000000	     11.11636683	     -5.12590654	      3.10594027
